<svg width="30" height="30" viewBox="0 0 30 30" fill="none" xmlns="http://www.w3.org/2000/svg">
<rect width="30" height="30" fill="#1E1E1E"/>
<g clip-path="url(#clip0_0_1)">
<rect width="1440" height="4000" transform="translate(-42 -444)" fill="white"/>
<rect x="-42" y="-444" width="1440" height="4000" fill="#EDE3E0"/>
<rect width="120" height="3962" transform="translate(-42 -406)" fill="#F5F1F0"/>
<g clip-path="url(#clip1_0_1)">
<path fill-rule="evenodd" clip-rule="evenodd" d="M9.47369 0.789474C9.47369 0.580092 9.55686 0.379287 9.70492 0.231232C9.85297 0.0831766 10.0538 0 10.2632 0H19.7368C19.9462 0 20.147 0.0831766 20.2951 0.231232C20.4431 0.379287 20.5263 0.580092 20.5263 0.789474V29.2105C20.5263 29.4199 20.4431 29.6207 20.2951 29.7688C20.147 29.9168 19.9462 30 19.7368 30H10.2632C10.0538 30 9.85297 29.9168 9.70492 29.7688C9.55686 29.6207 9.47369 29.4199 9.47369 29.2105V0.789474ZM11.0526 1.57895V28.4211H18.9474V1.57895H11.0526Z" fill="#452D0F"/>
<path fill-rule="evenodd" clip-rule="evenodd" d="M0 15C0 14.7906 0.0831766 14.5898 0.231232 14.4418C0.379287 14.2937 0.580092 14.2105 0.789474 14.2105H10.2632C10.4725 14.2105 10.6733 14.2937 10.8214 14.4418C10.9695 14.5898 11.0526 14.7906 11.0526 15V29.2105C11.0526 29.4199 10.9695 29.6207 10.8214 29.7688C10.6733 29.9168 10.4725 30 10.2632 30H0.789474C0.580092 30 0.379287 29.9168 0.231232 29.7688C0.0831766 29.6207 0 29.4199 0 29.2105V15ZM1.57895 15.7895V28.4211H9.47368V15.7895H1.57895Z" fill="#452D0F"/>
<path fill-rule="evenodd" clip-rule="evenodd" d="M18.9474 7.10527C18.9474 6.89589 19.0305 6.69508 19.1786 6.54703C19.3267 6.39897 19.5275 6.3158 19.7368 6.3158H29.2105C29.4199 6.3158 29.6207 6.39897 29.7688 6.54703C29.9168 6.69508 30 6.89589 30 7.10527V29.2105C30 29.4199 29.9168 29.6207 29.7688 29.7688C29.6207 29.9168 29.4199 30 29.2105 30H19.7368C19.5275 30 19.3267 29.9168 19.1786 29.7688C19.0305 29.6207 18.9474 29.4199 18.9474 29.2105V7.10527ZM20.5263 7.89474V28.4211H28.4211V7.89474H20.5263Z" fill="#452D0F"/>
</g>
</g>
<defs>
<clipPath id="clip0_0_1">
<rect width="1440" height="4000" fill="white" transform="translate(-42 -444)"/>
</clipPath>
<clipPath id="clip1_0_1">
<rect width="30" height="30" fill="white"/>
</clipPath>
</defs>
</svg>
