<svg width="29" height="30" viewBox="0 0 29 30" fill="none" xmlns="http://www.w3.org/2000/svg">
<rect width="29" height="30" fill="#1E1E1E"/>
<g clip-path="url(#clip0_0_1)">
<rect width="1440" height="4000" transform="translate(-44 -764)" fill="white"/>
<rect x="-44" y="-764" width="1440" height="4000" fill="#EDE3E0"/>
<rect width="120" height="3962" transform="translate(-44 -726)" fill="#F5F1F0"/>
<g clip-path="url(#clip1_0_1)">
<path d="M14.5 30C17.3678 30 20.1713 29.1203 22.5558 27.472C24.9403 25.8238 26.7988 23.4811 27.8963 20.7403C28.9937 17.9994 29.2809 14.9834 28.7214 12.0737C28.1619 9.16394 26.7809 6.49119 24.753 4.3934C22.7252 2.29562 20.1415 0.867006 17.3288 0.288227C14.5161 -0.290551 11.6006 0.00649957 8.95109 1.14181C6.30156 2.27713 4.03697 4.19972 2.44369 6.66645C0.85041 9.13319 0 12.0333 0 15C0.00451469 18.9768 1.53364 22.7894 4.25194 25.6014C6.97024 28.4135 10.6557 29.9953 14.5 30ZM14.5 1.76471C17.0304 1.76471 19.504 2.54095 21.608 3.99526C23.712 5.44957 25.3519 7.51664 26.3202 9.93508C27.2886 12.3535 27.5419 15.0147 27.0483 17.5821C26.5546 20.1495 25.3361 22.5078 23.5468 24.3588C21.7575 26.2098 19.4778 27.4703 16.996 27.981C14.5142 28.4917 11.9417 28.2296 9.6039 27.2278C7.26608 26.2261 5.26792 24.5297 3.86208 22.3531C2.45624 20.1766 1.70588 17.6177 1.70588 15C1.70588 11.4898 3.05383 8.12334 5.45319 5.64124C7.85255 3.15914 11.1068 1.76471 14.5 1.76471Z" fill="#452D0F"/>
<path d="M14.5 22.9412C14.7262 22.9412 14.9432 22.8482 15.1031 22.6828C15.2631 22.5173 15.3529 22.2929 15.3529 22.0588V13.2353C15.3529 13.0013 15.2631 12.7769 15.1031 12.6114C14.9432 12.4459 14.7262 12.353 14.5 12.353C14.2738 12.353 14.0568 12.4459 13.8969 12.6114C13.7369 12.7769 13.6471 13.0013 13.6471 13.2353V22.0588C13.6471 22.2929 13.7369 22.5173 13.8969 22.6828C14.0568 22.8482 14.2738 22.9412 14.5 22.9412Z" fill="#452D0F"/>
<path d="M14.5 10.5883C14.7262 10.5883 14.9432 10.4953 15.1031 10.3298C15.2631 10.1643 15.3529 9.93991 15.3529 9.7059V9.30002C15.3529 9.066 15.2631 8.84157 15.1031 8.6761C14.9432 8.51062 14.7262 8.41766 14.5 8.41766C14.2738 8.41766 14.0568 8.51062 13.8969 8.6761C13.7369 8.84157 13.6471 9.066 13.6471 9.30002V9.7059C13.6471 9.93991 13.7369 10.1643 13.8969 10.3298C14.0568 10.4953 14.2738 10.5883 14.5 10.5883Z" fill="#452D0F"/>
</g>
</g>
<defs>
<clipPath id="clip0_0_1">
<rect width="1440" height="4000" fill="white" transform="translate(-44 -764)"/>
</clipPath>
<clipPath id="clip1_0_1">
<rect width="29" height="30" fill="white"/>
</clipPath>
</defs>
</svg>
