<svg width="80" height="16" viewBox="0 0 80 16" fill="none" xmlns="http://www.w3.org/2000/svg">
<rect width="80" height="16" fill="#1E1E1E"/>
<g clip-path="url(#clip0_0_1)">
<rect width="1440" height="4000" transform="translate(-22 -104)" fill="white"/>
<rect x="-22" y="-104" width="1440" height="4000" fill="#EDE3E0"/>
<rect width="120" height="3962" transform="translate(-22 -66)" fill="#F5F1F0"/>
<g clip-path="url(#clip1_0_1)">
<path d="M16.9756 -7.62939e-06H12.385L3.22806 7.39222V-7.62939e-06H-0.000337601V15.8519H3.22806V10.9242L5.78444 8.88229C6.04011 8.67667 6.37021 8.57649 6.7026 8.6037C7.03499 8.63092 7.34264 8.78331 7.55831 9.02752L13.5444 15.8461H17.7717L9.09002 6.27392L16.9756 -7.62939e-06Z" fill="#452D0F"/>
<path d="M33.9273 9.88872C33.6473 10.3433 33.3673 9.97729 33.2946 9.86546L30.3886 -7.62939e-06H27.2934L24.4358 9.86546C24.1483 10.3622 23.8577 9.97293 23.7865 9.86546L20.9108 0.00289981H17.6809L22.5439 15.8548H25.7027L28.8615 4.60378H28.9069L32.0429 15.8548H35.1381L39.9512 -7.62939e-06H36.7924L33.9273 9.88872Z" fill="#452D0F"/>
<path d="M45.609 -7.62939e-06H42.3821V15.8519H45.609V-7.62939e-06Z" fill="#452D0F"/>
<path d="M52.791 12.1848V-7.62939e-06H49.5732C49.5708 -7.62939e-06 49.5685 0.000911088 49.5668 0.00254524C49.5651 0.0041794 49.5641 0.00640364 49.5641 0.00871469V15.8519H64.6905C64.711 15.8519 64.7306 15.8441 64.7451 15.8302C64.7596 15.8163 64.7677 15.7975 64.7677 15.7778V13.1056H53.7551C53.6287 13.1061 53.5035 13.0827 53.3865 13.0367C53.2696 12.9907 53.1633 12.923 53.0737 12.8374C52.9841 12.7519 52.913 12.6502 52.8645 12.5382C52.816 12.4262 52.791 12.3061 52.791 12.1848Z" fill="#452D0F"/>
<path d="M60.1845 6.96413e-05C60.1825 -0.000135489 60.1806 7.2575e-05 60.1788 0.000636946C60.177 0.00120132 60.1753 0.00213229 60.1738 0.0033671C60.1724 0.00460191 60.1713 0.00611067 60.1705 0.00779917C60.1697 0.00948768 60.1693 0.0113073 60.1693 0.0131531V2.64761C60.1693 2.64933 60.1697 2.65103 60.1704 2.65261C60.171 2.6542 60.1721 2.65565 60.1733 2.65687C60.1746 2.65808 60.1761 2.65905 60.1777 2.6597C60.1794 2.66036 60.1812 2.6607 60.1829 2.6607H66.7533C66.966 2.6607 67.17 2.74178 67.3205 2.88613C67.4709 3.03048 67.5554 3.22628 67.5554 3.43042V15.852H70.7823V3.43042C70.7823 3.22628 70.8668 3.03048 71.0173 2.88613C71.1677 2.74178 71.3717 2.6607 71.5845 2.6607H78.1684V6.96413e-05H60.1845Z" fill="#452D0F"/>
<path d="M76.7898 9.84664C77.4244 9.84664 78.0447 10.0273 78.5722 10.3657C79.0998 10.7041 79.5109 11.1851 79.7534 11.7477C79.996 12.3104 80.0592 12.9295 79.9349 13.5266C79.8107 14.1237 79.5046 14.672 79.0555 15.1022C78.6063 15.5323 78.0343 15.825 77.4118 15.9431C76.7892 16.0612 76.1442 15.9994 75.5582 15.7656C74.9723 15.5318 74.4718 15.1364 74.1202 14.6296C73.7685 14.1227 73.5814 13.5271 73.5826 12.9182C73.583 12.5145 73.6663 12.1148 73.8277 11.7419C73.989 11.369 74.2254 11.0303 74.5232 10.7451C74.821 10.4599 75.1745 10.2337 75.5634 10.0796C75.9523 9.9254 76.369 9.84626 76.7898 9.84664ZM76.7898 15.5106C77.3249 15.5118 77.8483 15.3605 78.2937 15.076C78.7392 14.7915 79.0866 14.3866 79.292 13.9124C79.4974 13.4383 79.5515 12.9164 79.4475 12.4127C79.3435 11.9091 79.0861 11.4464 78.7078 11.0832C78.3296 10.7201 77.8475 10.4728 77.3227 10.3727C76.7978 10.2727 76.2538 10.3243 75.7596 10.5211C75.2654 10.7179 74.8432 11.0511 74.5464 11.4783C74.2497 11.9056 74.0918 12.4077 74.0927 12.9212C74.0927 13.6077 74.3768 14.2661 74.8825 14.7517C75.3883 15.2372 76.0743 15.5102 76.7898 15.5106ZM76.7565 13.1143H76.0587V14.7438H75.5502V11.0826H77.0637C77.9204 11.0826 78.2988 11.4369 78.2988 12.0992C78.2988 12.7353 77.8538 13.0344 77.3407 13.1158L78.4925 14.7453H77.8705L76.7565 13.1143ZM76.0587 12.6786H76.8912C77.3952 12.6786 77.7993 12.6234 77.7993 12.0904C77.7993 11.5574 77.3543 11.5182 76.8912 11.5182H76.0587V12.6786Z" fill="#452D0F"/>
</g>
</g>
<defs>
<clipPath id="clip0_0_1">
<rect width="1440" height="4000" fill="white" transform="translate(-22 -104)"/>
</clipPath>
<clipPath id="clip1_0_1">
<rect width="80" height="16" fill="white"/>
</clipPath>
</defs>
</svg>
