<svg width="30" height="18" viewBox="0 0 30 18" fill="none" xmlns="http://www.w3.org/2000/svg">
<rect width="30" height="18" fill="#1E1E1E"/>
<g clip-path="url(#clip0_0_1)">
<rect width="1440" height="4000" transform="translate(-42 -623)" fill="white"/>
<rect x="-42" y="-623" width="1440" height="4000" fill="#EDE3E0"/>
<rect width="120" height="3962" transform="translate(-42 -585)" fill="#F5F1F0"/>
<g clip-path="url(#clip1_0_1)">
<path d="M29.0486 2.87611e-05L0.621643 3.09422C0.435289 3.11895 0.265977 3.21553 0.149835 3.36334C0.0336921 3.51116 -0.0200846 3.69852 -2.09836e-05 3.88543C0.0286127 4.06873 0.124274 4.23488 0.268425 4.35168L7.05021 9.52279V13.4082C7.05021 13.5956 7.12464 13.7752 7.25712 13.9077C7.38961 14.0402 7.56929 14.1146 7.75665 14.1146H7.99684L9.86183 13.4647L12.843 17.7033C12.9036 17.7875 12.9817 17.8576 13.072 17.9088C13.1622 17.96 13.2624 17.9911 13.3658 18C13.4617 18.0005 13.5567 17.9806 13.6443 17.9416C13.732 17.9026 13.8104 17.8455 13.8744 17.774L29.6562 1.18684C29.7224 1.12117 29.7749 1.04304 29.8108 0.956951C29.8467 0.870866 29.8651 0.77853 29.8651 0.685272C29.8651 0.592014 29.8467 0.499679 29.8108 0.413593C29.7749 0.327507 29.7224 0.249375 29.6562 0.183702C29.5757 0.108739 29.479 0.0532097 29.3737 0.0213719C29.2684 -0.0104659 29.1572 -0.0177672 29.0486 2.87611e-05ZM23.8493 1.94979L7.85555 8.37837L2.54315 4.30929L23.8493 1.94979ZM8.47722 12.4333V11.4443L9.02824 12.2355L8.47722 12.4333ZM13.507 16.2057L8.85869 9.50866L26.5196 2.4443L13.507 16.2057Z" fill="#452D0F"/>
</g>
</g>
<defs>
<clipPath id="clip0_0_1">
<rect width="1440" height="4000" fill="white" transform="translate(-42 -623)"/>
</clipPath>
<clipPath id="clip1_0_1">
<rect width="29.854" height="18" fill="white"/>
</clipPath>
</defs>
</svg>
