<svg width="21" height="30" viewBox="0 0 21 30" fill="none" xmlns="http://www.w3.org/2000/svg">
<g clip-path="url(#clip0_393_937)">
<mask id="mask0_393_937" style="mask-type:luminance" maskUnits="userSpaceOnUse" x="0" y="0" width="21" height="30">
<path d="M21 0H0V30H21V0Z" fill="white"/>
</mask>
<g mask="url(#mask0_393_937)">
<path d="M15.6197 17.9354V7.63128C15.617 5.60816 14.7935 3.66867 13.3298 2.23811C11.866 0.807538 9.88155 0.00267197 7.81151 0C5.74088 0.00178124 3.75551 0.806254 2.29103 2.23692C0.82654 3.66757 0.00253327 5.60758 -0.000202456 7.63128V22.3485C-0.01818 23.6879 0.335897 25.007 1.02432 26.1654C1.71274 27.3237 2.70972 28.2778 3.9091 28.9262C5.11644 29.6204 6.48993 29.9909 7.89073 30C9.16433 29.9998 10.4162 29.6774 11.5245 29.0642C12.446 29.6356 13.508 29.954 14.5988 29.986C15.6898 30.018 16.7693 29.7624 17.7243 29.2459C18.7207 28.7426 19.5552 27.9796 20.1358 27.0416C20.7162 26.1035 21.0201 25.0269 21.0136 23.9307C21.0032 22.4642 20.452 21.0507 19.4613 19.9494C18.4705 18.8481 17.1065 18.1331 15.6197 17.9354ZM19.2983 24.7285C19.1095 25.7553 18.5578 26.6848 17.7395 27.3547C16.9212 28.0247 15.8882 28.3926 14.8207 28.3943C13.7536 28.3913 12.7212 28.0229 11.9033 27.3531C11.0852 26.6835 10.5331 25.7547 10.3431 24.7285H19.2983ZM14.8207 19.4906C15.8894 19.4759 16.9282 19.8354 17.7495 20.504C18.5707 21.1726 19.12 22.1062 19.2983 23.1362H10.319C10.4975 22.1045 11.0485 21.1695 11.8718 20.5007C12.6952 19.8318 13.7365 19.4735 14.8069 19.4906H14.8207ZM10.164 27.9365C9.43801 28.2326 8.66013 28.388 7.87351 28.3943H7.81151C6.1708 28.3944 4.597 27.7587 3.4349 26.6267C2.27281 25.4948 1.61721 23.9587 1.61174 22.3552V15.7877H13.9734V17.9354C12.4923 18.1397 11.1357 18.8577 10.1512 19.9583C9.16666 21.0589 8.61988 22.4688 8.61059 23.9307C8.60594 25.4073 9.15908 26.8337 10.164 27.9365ZM7.81151 1.58886C9.44982 1.59331 11.0198 2.23135 12.1783 3.36356C13.3367 4.49577 13.9895 6.0301 13.994 7.63128V14.1988H1.62896V7.63128C1.63351 6.0301 2.28633 4.49577 3.44481 3.36356C4.60327 2.23135 6.17319 1.59331 7.81151 1.58886Z" fill="#452D0F"/>
</g>
</g>
<defs>
<clipPath id="clip0_393_937">
<rect width="21" height="30" fill="white"/>
</clipPath>
</defs>
</svg>
