<svg width="28" height="30" viewBox="0 0 28 30" fill="none" xmlns="http://www.w3.org/2000/svg">
<rect width="28" height="30" fill="#1E1E1E"/>
<g clip-path="url(#clip0_0_1)">
<rect width="1440" height="4000" transform="translate(-45 -827)" fill="white"/>
<rect x="-45" y="-827" width="1440" height="4000" fill="#EDE3E0"/>
<rect width="120" height="3962" transform="translate(-45 -789)" fill="#F5F1F0"/>
<g clip-path="url(#clip1_0_1)">
<path d="M24.7642 14.3477L26.4621 12.9651C26.8703 12.6231 27.1676 12.1679 27.3164 11.657C27.4652 11.1462 27.4588 10.6027 27.298 10.0955C26.6945 8.30844 25.7694 6.64642 24.5682 5.19115C24.2259 4.80059 23.7677 4.52928 23.2603 4.41668C22.7529 4.30408 22.2228 4.35606 21.747 4.56506L19.7356 5.41289C19.6995 5.4323 19.6591 5.44245 19.618 5.44245C19.577 5.44245 19.5366 5.4323 19.5005 5.41289L18.9389 4.94332C18.8952 4.9171 18.8582 4.88102 18.831 4.83799C18.8038 4.79495 18.7871 4.74615 18.7821 4.6955L18.4817 2.46506C18.4097 1.93115 18.1739 1.43261 17.8067 1.03791C17.4395 0.643212 16.959 0.371717 16.4311 0.260714C14.6327 -0.0912991 12.783 -0.0912991 10.9846 0.260714C10.473 0.384949 10.0109 0.660656 9.659 1.05169C9.30706 1.44272 9.08165 1.93083 9.01232 2.45202C8.90783 3.15637 8.79028 3.99115 8.72498 4.56506V4.6955C8.71255 4.75447 8.684 4.80884 8.64249 4.85259C8.60099 4.89634 8.54817 4.92774 8.48987 4.94332L7.876 5.32158C7.83986 5.34099 7.79947 5.35115 7.75845 5.35115C7.71742 5.35115 7.67703 5.34099 7.64089 5.32158L5.69477 4.4868C5.20518 4.28368 4.66332 4.24248 4.14858 4.36923C3.63384 4.49598 3.17328 4.78402 2.83436 5.19115C1.64497 6.65288 0.733117 8.31939 0.143753 10.1085C-0.0208023 10.6082 -0.0302793 11.1458 0.116565 11.6509C0.263409 12.156 0.559715 12.605 0.96661 12.939L2.66457 14.3477C2.70302 14.382 2.73348 14.4243 2.75379 14.4716C2.7741 14.5189 2.78377 14.5701 2.78212 14.6216V15.3651C2.78377 15.4165 2.7741 15.4677 2.75379 15.515C2.73348 15.5624 2.70302 15.6047 2.66457 15.639L0.96661 17.0216C0.558448 17.3635 0.26112 17.8187 0.112306 18.3296C-0.0365082 18.8405 -0.0301095 19.3839 0.130691 19.8911C0.734187 21.6782 1.65928 23.3402 2.86049 24.7955C3.20362 25.1849 3.661 25.4563 4.16753 25.571C4.67405 25.6858 5.20392 25.638 5.68171 25.4346L7.5364 24.6651L7.69314 24.5998C7.72927 24.5804 7.76966 24.5703 7.81069 24.5703C7.85172 24.5703 7.89211 24.5804 7.92824 24.5998L8.55518 24.9781C8.59886 25.0043 8.63579 25.0404 8.663 25.0834C8.69022 25.1265 8.70697 25.1753 8.71192 25.2259L9.01232 27.4564C9.06491 27.9956 9.28432 28.5051 9.64008 28.9142C9.99585 29.3232 10.4703 29.6115 10.9976 29.739C11.8843 29.9102 12.7852 29.9975 13.6882 29.9998C14.6137 30.0005 15.537 29.9087 16.4442 29.7259C16.9539 29.6025 17.4146 29.3288 17.7664 28.9403C18.1181 28.5518 18.3446 28.0665 18.4164 27.5477C18.534 26.7912 18.6515 25.8651 18.7299 25.3042C18.7348 25.2535 18.7516 25.2047 18.7788 25.1617C18.806 25.1187 18.8429 25.0826 18.8866 25.0564L19.5135 24.6781C19.5497 24.6587 19.5901 24.6485 19.6311 24.6485C19.6721 24.6485 19.7125 24.6587 19.7486 24.6781L21.747 25.5259C22.2366 25.729 22.7785 25.7703 23.2932 25.6435C23.8079 25.5168 24.2685 25.2287 24.6074 24.8216C25.7968 23.3599 26.7087 21.6933 27.298 19.9042C27.4626 19.4046 27.4721 18.8669 27.3252 18.3618C27.1784 17.8567 26.8821 17.4077 26.4752 17.0738L24.7772 15.6651C24.7388 15.6308 24.7083 15.5885 24.688 15.5411C24.6677 15.4938 24.658 15.4426 24.6597 15.3911V14.6477C24.6523 14.593 24.658 14.5373 24.6761 14.4852C24.6943 14.4331 24.7244 14.386 24.7642 14.3477ZM23.9413 16.6694L25.6393 18.0651C25.8477 18.2327 25.9996 18.4601 26.0744 18.7168C26.1491 18.9734 26.1431 19.2467 26.0572 19.4998C25.5199 21.1327 24.6877 22.6534 23.6017 23.9868C23.4312 24.1872 23.1989 24.3255 22.9412 24.3798C22.6835 24.4341 22.4151 24.4014 22.178 24.2868L20.245 23.4651C20.0098 23.3624 19.7525 23.3205 19.4968 23.3433C19.2412 23.3661 18.9954 23.4528 18.7821 23.5955L18.2466 23.9216C18.0248 24.0464 17.8351 24.221 17.6923 24.4315C17.5495 24.642 17.4576 24.8827 17.4237 25.1346C17.3454 25.6825 17.2278 26.5955 17.1103 27.3651C17.0765 27.6175 16.9694 27.8545 16.8023 28.0469C16.6352 28.2393 16.4153 28.3786 16.1699 28.4477C14.5491 28.7737 12.8796 28.7737 11.2589 28.4477C11.0067 28.3822 10.7799 28.2428 10.6077 28.0476C10.4354 27.8523 10.3256 27.6101 10.2923 27.352L9.99191 25.1216C9.95852 24.8711 9.86819 24.6316 9.72783 24.4213C9.58747 24.2111 9.4008 24.0357 9.18212 23.9085L8.64661 23.5825C8.43177 23.443 8.18549 23.3592 7.93007 23.3387C7.67465 23.3182 7.41814 23.3616 7.18375 23.4651L7.02702 23.5303L5.18538 24.2998C4.96099 24.3895 4.71399 24.4063 4.47951 24.3478C4.24503 24.2892 4.03499 24.1583 3.87926 23.9738C2.78538 22.6463 1.94428 21.13 1.39763 19.4998C1.30576 19.2433 1.29667 18.9644 1.37163 18.7024C1.44659 18.4404 1.60185 18.2084 1.81559 18.039L3.51355 16.6564C3.70673 16.4992 3.86132 16.2999 3.96546 16.0738C4.0696 15.8477 4.12054 15.6008 4.11436 15.352V14.6868C4.11998 14.4203 4.06259 14.1562 3.94685 13.916C3.83112 13.6757 3.66029 13.4661 3.44824 13.3042L1.81559 11.9998C1.60712 11.8323 1.45524 11.6048 1.38048 11.3481C1.30573 11.0915 1.31171 10.8182 1.39763 10.5651C1.93239 8.9179 2.75974 7.38033 3.84008 6.02593C3.99699 5.84296 4.20703 5.71327 4.44106 5.65484C4.67509 5.59641 4.92152 5.61214 5.1462 5.69984L7.18375 6.53463C7.41893 6.63733 7.67623 6.67921 7.9319 6.65641C8.18757 6.63362 8.43336 6.54687 8.64661 6.40419L9.18212 6.07811C9.40587 5.95569 9.59722 5.78181 9.74031 5.57087C9.8834 5.35992 9.97413 5.11798 10.005 4.86506V4.73463C10.0833 4.17376 10.1878 3.33897 10.2923 2.63463C10.3261 2.38219 10.4332 2.14516 10.6003 1.95278C10.7674 1.7604 10.9873 1.62108 11.2327 1.55202C12.8535 1.22597 14.523 1.22597 16.1437 1.55202C16.3959 1.61754 16.6227 1.75688 16.7949 1.95212C16.9672 2.14737 17.077 2.3896 17.1103 2.64767L17.4107 4.89115C17.4441 5.14163 17.5344 5.38117 17.6748 5.59142C17.8151 5.80167 18.0018 5.97707 18.2205 6.10419L18.7691 6.43028C18.9823 6.57296 19.2281 6.6597 19.4838 6.6825C19.7394 6.7053 19.9967 6.66341 20.2319 6.56071L22.2303 5.72593C22.4547 5.63624 22.7017 5.61947 22.9362 5.67801C23.1706 5.73655 23.3807 5.86742 23.5364 6.05202C24.6303 7.37945 25.4714 8.89578 26.018 10.5259C26.1099 10.7825 26.119 11.0614 26.044 11.3234C25.9691 11.5854 25.8138 11.8174 25.6001 11.9868L23.9021 13.3694C23.7089 13.5266 23.5543 13.7259 23.4502 13.952C23.3461 14.1781 23.2951 14.425 23.3013 14.6738V15.339C23.2967 15.5952 23.3522 15.849 23.4633 16.08C23.5745 16.311 23.7381 16.5128 23.9413 16.6694Z" fill="#452D0F"/>
<path d="M13.7143 9.13045C12.5518 9.13045 11.4155 9.47469 10.4489 10.1196C9.48233 10.7646 8.72899 11.6813 8.28414 12.7538C7.83928 13.8263 7.72288 15.0065 7.94967 16.1451C8.17646 17.2837 8.73624 18.3295 9.55823 19.1504C10.3802 19.9713 11.4275 20.5303 12.5676 20.7568C13.7078 20.9833 14.8895 20.867 15.9635 20.4228C17.0375 19.9785 17.9555 19.2262 18.6013 18.261C19.2471 17.2957 19.5918 16.1609 19.5918 15C19.5936 14.2287 19.4427 13.4647 19.1479 12.7518C18.8532 12.0389 18.4203 11.3912 17.8742 10.8458C17.3281 10.3004 16.6794 9.8681 15.9656 9.57374C15.2517 9.27937 14.4866 9.12873 13.7143 9.13045ZM13.7143 19.5652C12.8101 19.5652 11.9263 19.2975 11.1745 18.7959C10.4228 18.2942 9.83684 17.5812 9.49083 16.747C9.14483 15.9129 9.0543 14.9949 9.23069 14.1094C9.40708 13.2238 9.84247 12.4104 10.4818 11.7719C11.1211 11.1335 11.9357 10.6987 12.8224 10.5225C13.7092 10.3464 14.6284 10.4368 15.4637 10.7823C16.299 11.1278 17.013 11.713 17.5153 12.4637C18.0176 13.2145 18.2857 14.0971 18.2857 15C18.2857 16.2108 17.8041 17.372 16.9468 18.2281C16.0895 19.0843 14.9267 19.5652 13.7143 19.5652Z" fill="#452D0F"/>
</g>
</g>
<defs>
<clipPath id="clip0_0_1">
<rect width="1440" height="4000" fill="white" transform="translate(-45 -827)"/>
</clipPath>
<clipPath id="clip1_0_1">
<rect width="27.4286" height="30" fill="white"/>
</clipPath>
</defs>
</svg>
