<svg width="29" height="28" viewBox="0 0 29 28" fill="none" xmlns="http://www.w3.org/2000/svg">
<rect width="29" height="28" fill="#1E1E1E"/>
<g clip-path="url(#clip0_0_1)">
<rect width="1440" height="4000" transform="translate(-44 -527)" fill="white"/>
<rect x="-44" y="-527" width="1440" height="4000" fill="#EDE3E0"/>
<rect width="120" height="3962" transform="translate(-44 -489)" fill="#F5F1F0"/>
<g clip-path="url(#clip1_0_1)">
<path d="M2.97686 5.95372C4.62093 5.95372 5.95372 4.62094 5.95372 2.97686C5.95372 1.33279 4.62093 0 2.97686 0C1.33279 0 0 1.33279 0 2.97686C0 4.62094 1.33279 5.95372 2.97686 5.95372Z" fill="#452D0F"/>
<path d="M13.9912 5.95372C15.6353 5.95372 16.9681 4.62094 16.9681 2.97686C16.9681 1.33279 15.6353 0 13.9912 0C12.3472 0 11.0144 1.33279 11.0144 2.97686C11.0144 4.62094 12.3472 5.95372 13.9912 5.95372Z" fill="#452D0F"/>
<path d="M25.0406 5.95372C26.6847 5.95372 28.0175 4.62094 28.0175 2.97686C28.0175 1.33279 26.6847 0 25.0406 0C23.3966 0 22.0638 1.33279 22.0638 2.97686C22.0638 4.62094 23.3966 5.95372 25.0406 5.95372Z" fill="#452D0F"/>
<path d="M2.97686 16.9681C4.62093 16.9681 5.95372 15.6353 5.95372 13.9913C5.95372 12.3472 4.62093 11.0144 2.97686 11.0144C1.33279 11.0144 0 12.3472 0 13.9913C0 15.6353 1.33279 16.9681 2.97686 16.9681Z" fill="#452D0F"/>
<path d="M13.9912 16.9681C15.6353 16.9681 16.9681 15.6353 16.9681 13.9913C16.9681 12.3472 15.6353 11.0144 13.9912 11.0144C12.3472 11.0144 11.0144 12.3472 11.0144 13.9913C11.0144 15.6353 12.3472 16.9681 13.9912 16.9681Z" fill="#452D0F"/>
<path d="M25.0406 16.9681C26.6847 16.9681 28.0175 15.6353 28.0175 13.9913C28.0175 12.3472 26.6847 11.0144 25.0406 11.0144C23.3966 11.0144 22.0638 12.3472 22.0638 13.9913C22.0638 15.6353 23.3966 16.9681 25.0406 16.9681Z" fill="#452D0F"/>
<path d="M2.97686 28C4.62093 28 5.95372 26.6672 5.95372 25.0231C5.95372 23.3791 4.62093 22.0463 2.97686 22.0463C1.33279 22.0463 0 23.3791 0 25.0231C0 26.6672 1.33279 28 2.97686 28Z" fill="#452D0F"/>
<path d="M13.9912 28C15.6353 28 16.9681 26.6672 16.9681 25.0231C16.9681 23.3791 15.6353 22.0463 13.9912 22.0463C12.3472 22.0463 11.0144 23.3791 11.0144 25.0231C11.0144 26.6672 12.3472 28 13.9912 28Z" fill="#452D0F"/>
<path d="M25.0406 28C26.6847 28 28.0175 26.6672 28.0175 25.0231C28.0175 23.3791 26.6847 22.0463 25.0406 22.0463C23.3966 22.0463 22.0638 23.3791 22.0638 25.0231C22.0638 26.6672 23.3966 28 25.0406 28Z" fill="#452D0F"/>
</g>
</g>
<defs>
<clipPath id="clip0_0_1">
<rect width="1440" height="4000" fill="white" transform="translate(-44 -527)"/>
</clipPath>
<clipPath id="clip1_0_1">
<rect width="28.0175" height="28" fill="white"/>
</clipPath>
</defs>
</svg>
